<svg xmlns="http://www.w3.org/2000/svg" xmlns:xlink="http://www.w3.org/1999/xlink" width="28" height="28" viewBox="0 0 28 28">
    <defs>
        <circle id="b" cx="13" cy="13" r="13"/>
        <filter id="a" width="115.4%" height="115.4%" x="-7.7%" y="-3.8%" filterUnits="objectBoundingBox">
            <feOffset dy="1" in="SourceAlpha" result="shadowOffsetOuter1"/>
            <feGaussianBlur in="shadowOffsetOuter1" result="shadowBlurOuter1" stdDeviation=".5"/>
            <feColorMatrix in="shadowBlurOuter1" values="0 0 0 0 0.337254902 0 0 0 0 0.337254902 0 0 0 0 0.337254902 0 0 0 0.34 0"/>
        </filter>
    </defs>
    <g fill="none" fill-rule="evenodd">
        <g transform="translate(1)">
            <use fill="#000" filter="url(#a)" xlink:href="#b"/>
            <use fill="#3C5674" xlink:href="#b"/>
        </g>
        <path fill="#FFF" fill-rule="nonzero" d="M16.106 8.995c.663 0 1.204-.507 1.204-1.127s-.541-1.127-1.204-1.127c-.662 0-1.203.507-1.203 1.127s.541 1.127 1.203 1.127zM9.787 12.66c-1.685 0-3.01 1.24-3.01 2.819 0 1.578 1.325 2.818 3.01 2.818 1.685 0 3.01-1.24 3.01-2.818s-1.325-2.819-3.01-2.819zm0 4.792c-1.143 0-2.106-.902-2.106-1.973 0-1.071.963-1.973 2.106-1.973 1.144 0 2.107.902 2.107 1.973 0 1.07-.963 1.973-2.107 1.973zm3.49-5.637l1.445-1.353.482.451c.782.733 1.805 1.184 3.07 1.184v-1.128a3.092 3.092 0 0 1-2.168-.845l-1.143-1.071c-.301-.226-.602-.338-.963-.338s-.662.112-.843.338l-1.685 1.578a1.08 1.08 0 0 0-.36.79c0 .338.12.62.36.788l1.926 1.579v2.818h1.204V13.11l-1.324-1.296zm4.936.845c-1.685 0-3.01 1.24-3.01 2.819 0 1.578 1.325 2.818 3.01 2.818 1.685 0 3.01-1.24 3.01-2.818s-1.325-2.819-3.01-2.819zm0 4.792c-1.144 0-2.107-.902-2.107-1.973 0-1.071.963-1.973 2.107-1.973 1.143 0 2.106.902 2.106 1.973 0 1.07-.963 1.973-2.106 1.973z"/>
    </g>
</svg>
